<?xml version="1.0" encoding="UTF-8"?>
<!DOCTYPE svg PUBLIC "-//W3C//DTD SVG 1.1//EN" "http://www.w3.org/Graphics/SVG/1.1/DTD/svg11.dtd">
<svg version="1.1" xmlns="http://www.w3.org/2000/svg" xmlns:xlink="http://www.w3.org/1999/xlink" x="0" y="0" width="320" height="52" viewBox="0, 0, 320, 52">
  <g id="Background">
    <rect x="0" y="0" width="320" height="52" fill="#000000" fill-opacity="0"/>
  </g>
  <g id="Layer_1">
    <g>
      <path d="M117.245,25.974 C117.245,11.708 105.681,0.144 91.415,0.144 C67.432,0.144 38.031,25.974 38.031,25.974 C38.031,25.974 67.99,51.805 91.415,51.805 C105.681,51.805 117.245,40.24 117.245,25.974 z M79.36,25.974 C79.36,20.269 83.986,15.642 89.692,15.642 C95.399,15.642 100.025,20.268 100.025,25.974 C100.025,31.68 95.399,36.307 89.692,36.307 C83.986,36.307 79.36,31.68 79.36,25.974 z" fill="url(#Gradient_1)"/>
      <path d="M133.034,16.895 C133.034,15.424 134.159,14.256 135.63,14.256 C137.102,14.256 138.27,15.424 138.27,16.895 L138.27,18.02 C139.742,15.9 141.862,14.039 145.41,14.039 C150.559,14.039 153.546,17.501 153.546,22.781 L153.546,34.984 C153.546,36.455 152.42,37.579 150.949,37.579 C149.477,37.579 148.309,36.455 148.309,34.984 L148.309,24.382 C148.309,20.833 146.536,18.799 143.42,18.799 C140.391,18.799 138.27,20.92 138.27,24.468 L138.27,34.984 C138.27,36.455 137.102,37.579 135.63,37.579 C134.203,37.579 133.034,36.455 133.034,34.984 L133.034,16.895 z" fill="#51B5DB"/>
      <path d="M196.22,16.895 C196.22,15.424 197.346,14.256 198.817,14.256 C200.288,14.256 201.456,15.424 201.456,16.895 L201.456,19.232 C202.668,16.376 204.919,14.213 207.212,14.213 C208.856,14.213 209.808,15.294 209.808,16.809 C209.808,18.194 208.9,19.102 207.732,19.319 C204.01,19.968 201.456,22.824 201.456,28.233 L201.456,34.984 C201.456,36.412 200.288,37.579 198.817,37.579 C197.39,37.579 196.22,36.455 196.22,34.984 L196.22,16.895 z" fill="#51B5DB"/>
      <path d="M210.314,35.07 C209.753,34.767 209.32,34.118 209.32,33.252 C209.32,32.084 210.228,31.132 211.44,31.132 C211.873,31.132 212.262,31.261 212.565,31.435 C214.773,32.907 217.066,33.643 219.142,33.643 C221.392,33.643 222.691,32.691 222.691,31.176 L222.691,31.089 C222.691,29.315 220.268,28.709 217.585,27.887 C214.21,26.934 210.446,25.549 210.446,21.18 L210.446,21.092 C210.446,16.766 214.037,14.126 218.581,14.126 C221.003,14.126 223.556,14.818 225.763,15.987 C226.498,16.377 227.018,17.069 227.018,17.977 C227.018,19.189 226.066,20.098 224.855,20.098 C224.422,20.098 224.162,20.011 223.816,19.838 C221.956,18.886 220.051,18.28 218.451,18.28 C216.417,18.28 215.248,19.232 215.248,20.531 L215.248,20.617 C215.248,22.305 217.715,22.998 220.398,23.862 C223.729,24.902 227.495,26.416 227.495,30.527 L227.495,30.614 C227.495,35.416 223.773,37.797 219.013,37.797 C216.114,37.797 212.954,36.887 210.314,35.07 z" fill="#0D425D"/>
      <path d="M229.224,16.895 C229.224,15.424 230.35,14.256 231.82,14.256 C233.291,14.256 234.46,15.424 234.46,16.895 L234.46,18.323 C236.148,15.944 238.527,14.039 242.249,14.039 C247.614,14.039 252.85,18.28 252.85,25.896 L252.85,25.983 C252.85,33.555 247.658,37.84 242.249,37.84 C238.441,37.84 236.06,35.936 234.46,33.815 L234.46,41.907 C234.46,43.379 233.291,44.504 231.82,44.504 C230.392,44.504 229.224,43.379 229.224,41.907 L229.224,16.895 z M247.528,25.982 L247.528,25.896 C247.528,21.483 244.541,18.583 240.993,18.583 C237.445,18.583 234.33,21.525 234.33,25.896 L234.33,25.982 C234.33,30.353 237.445,33.296 240.993,33.296 C244.586,33.296 247.528,30.482 247.528,25.982 z" fill="#0D425D"/>
      <path d="M266.101,37.882 C259.48,37.882 254.374,33.079 254.374,26.025 L254.374,25.939 C254.374,19.405 259.003,14.039 265.538,14.039 C272.808,14.039 276.399,20.01 276.399,25.29 C276.399,26.761 275.274,27.801 273.932,27.801 L259.609,27.801 C260.172,31.521 262.812,33.599 266.187,33.599 C268.393,33.599 270.124,32.82 271.596,31.608 C271.986,31.306 272.332,31.132 272.937,31.132 C274.106,31.132 275.014,32.04 275.014,33.251 C275.014,33.901 274.711,34.463 274.322,34.853 C272.245,36.714 269.649,37.882 266.101,37.882 z M271.294,24.338 C270.947,20.963 268.957,18.323 265.495,18.323 C262.293,18.323 260.043,20.79 259.568,24.338 L271.294,24.338 z" fill="#0D425D"/>
      <path d="M276.733,30.786 L276.733,30.7 C276.733,25.766 280.584,23.342 286.167,23.342 C288.719,23.342 290.536,23.732 292.311,24.295 L292.311,23.732 C292.311,20.486 290.321,18.756 286.643,18.756 C284.652,18.756 283.007,19.102 281.58,19.664 C281.277,19.75 281.017,19.794 280.757,19.794 C279.546,19.794 278.55,18.842 278.55,17.63 C278.55,16.678 279.2,15.856 279.978,15.552 C282.142,14.73 284.35,14.211 287.335,14.211 C290.753,14.211 293.306,15.12 294.908,16.765 C296.596,18.409 297.375,20.832 297.375,23.818 L297.375,35.069 C297.375,36.497 296.249,37.578 294.822,37.578 C293.307,37.578 292.268,36.54 292.268,35.372 L292.268,34.506 C290.71,36.367 288.331,37.838 284.826,37.838 C280.54,37.839 276.733,35.373 276.733,30.786 z M292.397,29.142 L292.397,27.583 C291.056,27.065 289.282,26.675 287.205,26.675 C283.83,26.675 281.84,28.103 281.84,30.483 L281.84,30.57 C281.84,32.777 283.786,34.031 286.296,34.031 C289.758,34.031 292.397,32.041 292.397,29.142 z" fill="#0D425D"/>
      <path d="M300.008,8.154 C300.008,6.726 301.133,5.557 302.604,5.557 C304.074,5.557 305.244,6.726 305.244,8.154 L305.244,25.031 L315.067,15.381 C315.758,14.688 316.407,14.256 317.316,14.256 C318.701,14.256 319.61,15.381 319.61,16.635 C319.61,17.501 319.177,18.15 318.442,18.843 L312.383,24.425 L319.307,33.469 C319.783,34.117 320,34.594 320,35.2 C320,36.627 318.874,37.579 317.533,37.579 C316.495,37.579 315.889,37.233 315.24,36.412 L308.705,27.713 L305.244,31.002 L305.244,34.983 C305.244,36.454 304.074,37.579 302.604,37.579 C301.176,37.579 300.008,36.454 300.008,34.983 L300.008,8.154 z" fill="#0D425D"/>
      <path d="M35.574,28.876 L32.299,26.053 L35.547,23.198 C36.173,22.649 43.953,15.879 54.726,9.286 C45.604,4.328 35.197,0.195 25.83,0.195 C11.564,0.195 -0,11.76 -0,26.026 C-0,40.292 11.564,51.856 25.83,51.856 C35.417,51.856 45.862,47.726 54.955,42.772 C44.125,36.186 36.211,29.425 35.574,28.876 z" fill="url(#Gradient_2)"/>
      <g>
        <path d="M171.594,32.432 C170.36,33.199 168.943,33.664 167.242,33.664 C163.866,33.664 161.226,31.586 160.664,27.865 L174.988,27.865 C176.33,27.865 177.454,26.826 177.454,25.355 C177.454,20.076 173.863,14.104 166.593,14.104 C160.059,14.104 155.428,19.47 155.428,26.004 L155.428,26.09 C155.428,33.144 160.535,37.948 167.156,37.948 C169.717,37.948 171.781,37.336 173.513,36.297 C172.508,35.22 171.859,33.913 171.594,32.432 z M166.549,18.388 C170.011,18.388 172.002,21.028 172.348,24.403 L160.62,24.403 C161.097,20.855 163.347,18.388 166.549,18.388 z" fill="#51B5DB"/>
        <path d="M190.912,16.83 C189.31,15.186 186.757,14.277 183.339,14.277 C180.353,14.277 178.146,14.796 175.982,15.619 C175.656,15.745 175.354,15.964 175.112,16.244 C175.338,16.473 175.544,16.702 175.732,16.926 C176.44,17.771 177.036,18.726 177.506,19.75 C177.532,19.743 177.557,19.737 177.583,19.73 C179.011,19.168 180.656,18.821 182.646,18.821 C186.325,18.821 188.315,20.553 188.315,23.798 L188.315,24.361 C186.541,23.798 184.723,23.409 182.17,23.409 C176.588,23.409 172.736,25.832 172.736,30.766 L172.736,30.852 C172.736,35.439 176.545,37.906 180.829,37.906 C184.335,37.906 186.714,36.434 188.272,34.573 L188.272,35.439 C188.272,36.607 189.311,37.646 190.825,37.646 C192.253,37.646 193.378,36.564 193.378,35.136 L193.378,23.884 C193.378,20.898 192.599,18.475 190.912,16.83 z M188.402,29.206 C188.402,32.106 185.762,34.096 182.3,34.096 C179.79,34.096 177.843,32.842 177.843,30.635 L177.843,30.548 C177.843,28.168 179.833,26.74 183.209,26.74 C185.286,26.74 187.06,27.13 188.401,27.649 L188.401,29.206 z" fill="#51B5DB"/>
      </g>
    </g>
  </g>
  <defs>
    <linearGradient id="Gradient_1" gradientUnits="userSpaceOnUse" x1="77.638" y1="0.144" x2="77.638" y2="51.805">
      <stop offset="0" stop-color="#7CC5D6"/>
      <stop offset="1" stop-color="#51B5DB"/>
    </linearGradient>
    <linearGradient id="Gradient_2" gradientUnits="userSpaceOnUse" x1="27.478" y1="0.195" x2="27.478" y2="51.857">
      <stop offset="0" stop-color="#31697D"/>
      <stop offset="1" stop-color="#0D425D"/>
    </linearGradient>
  </defs>
</svg>
