<?xml version="1.0" encoding="UTF-8"?>
<!DOCTYPE svg PUBLIC "-//W3C//DTD SVG 1.1//EN" "http://www.w3.org/Graphics/SVG/1.1/DTD/svg11.dtd">
<svg version="1.1" xmlns="http://www.w3.org/2000/svg" xmlns:xlink="http://www.w3.org/1999/xlink" x="0px" y="0px" width="21" height="21" viewBox="0, 0, 21, 21">
  <g id="Background">
    <rect x="0" y="0" width="21" height="21" fill="#FFFFFF"/>
  </g>
  <g id="Layer 1">
    <g>
      <path d="M10.49,2.937 C11.155,2.937 11.7,2.396 11.7,1.73 C11.7,1.056 11.155,0.515 10.49,0.515 C9.822,0.515 9.279,1.057 9.279,1.73 C9.28,2.396 9.823,2.937 10.49,2.937" fill="#FFFFFF"/>
      <path d="M12.424,3.328 L8.536,3.328 C7.678,3.328 6.989,4.03 6.989,4.901 L6.989,7.802 C6.989,8.524 7.943,8.524 7.943,7.802 L7.943,5.002 L8.932,5.002 L8.932,8.534 C9.438,8.653 9.956,8.745 10.502,8.745 C11.043,8.745 11.556,8.654 12.061,8.536 L12.061,5.002 L13.043,5.002 L13.043,7.802 C13.043,8.529 13.996,8.529 13.996,7.802 L13.996,4.918 C13.994,4.121 13.369,3.328 12.424,3.328" fill="#FFFFFF"/>
      <path d="M15.075,9.663 C13.772,10.556 12.184,11.082 10.483,11.082 C8.792,11.082 7.225,10.564 5.917,9.686 L4.891,11.213 C6.486,12.294 8.413,12.92 10.483,12.92 C12.569,12.92 14.506,12.286 16.105,11.195 L15.075,9.663 z" fill="#FFFFFF"/>
      <path d="M17.035,12.807 C15.17,14.078 12.916,14.815 10.492,14.815 C8.08,14.815 5.837,14.085 3.975,12.828 L2.938,14.321 C5.091,15.783 7.692,16.637 10.492,16.637 C13.297,16.637 15.898,15.778 18.06,14.316 L17.035,12.807 z" fill="#FFFFFF"/>
      <path d="M18.981,15.924 C16.559,17.568 13.637,18.53 10.487,18.53 C7.343,18.53 4.423,17.571 2.004,15.932 L0.993,17.446 C3.697,19.282 6.968,20.352 10.488,20.352 C14.015,20.352 17.293,19.272 20.007,17.427 L18.981,15.924 z" fill="#FFFFFF"/>
    </g>
  </g>
  <defs/>
</svg>
