<?xml version="1.0" encoding="UTF-8"?>
<!DOCTYPE svg PUBLIC "-//W3C//DTD SVG 1.1//EN" "http://www.w3.org/Graphics/SVG/1.1/DTD/svg11.dtd">
<svg version="1.1" xmlns="http://www.w3.org/2000/svg" xmlns:xlink="http://www.w3.org/1999/xlink" x="0" y="0" width="130" height="21" viewBox="0, 0, 130, 21">
  <g id="Background">
    <rect x="0" y="0" width="130" height="21" fill="#000000" fill-opacity="0"/>
  </g>
  <g id="Layer_1">
    <g>
      <path d="M47.637,10.49 C47.637,4.696 42.942,-0 37.148,-0 C27.409,-0 15.469,10.49 15.469,10.49 C15.469,10.49 27.635,20.979 37.148,20.979 C42.942,20.979 47.637,16.283 47.637,10.49 z M32.253,10.49 C32.253,8.173 34.131,6.294 36.449,6.294 C38.766,6.294 40.644,8.172 40.644,10.49 C40.644,12.807 38.766,14.686 36.449,14.686 C34.131,14.686 32.253,12.807 32.253,10.49 z" fill="#FFFFFF"/>
      <path d="M54.049,6.803 C54.049,6.205 54.506,5.731 55.103,5.731 C55.701,5.731 56.176,6.205 56.176,6.803 L56.176,7.259 C56.773,6.399 57.634,5.643 59.075,5.643 C61.166,5.643 62.379,7.049 62.379,9.193 L62.379,14.148 C62.379,14.746 61.922,15.202 61.325,15.202 C60.727,15.202 60.253,14.746 60.253,14.148 L60.253,9.843 C60.253,8.402 59.532,7.576 58.267,7.576 C57.037,7.576 56.176,8.437 56.176,9.878 L56.176,14.148 C56.176,14.746 55.701,15.202 55.103,15.202 C54.524,15.202 54.049,14.746 54.049,14.148 L54.049,6.803 z" fill="#FFFFFF"/>
      <path d="M79.709,6.803 C79.709,6.205 80.166,5.731 80.763,5.731 C81.361,5.731 81.835,6.205 81.835,6.803 L81.835,7.751 C82.327,6.592 83.241,5.713 84.173,5.713 C84.84,5.713 85.227,6.152 85.227,6.768 C85.227,7.33 84.858,7.699 84.384,7.787 C82.872,8.05 81.835,9.21 81.835,11.407 L81.835,14.148 C81.835,14.728 81.361,15.202 80.763,15.202 C80.184,15.202 79.709,14.746 79.709,14.148 L79.709,6.803 z" fill="#FFFFFF"/>
      <path d="M85.432,14.183 C85.204,14.06 85.028,13.797 85.028,13.445 C85.028,12.971 85.397,12.584 85.889,12.584 C86.065,12.584 86.223,12.637 86.346,12.707 C87.243,13.305 88.174,13.604 89.017,13.604 C89.931,13.604 90.458,13.217 90.458,12.602 L90.458,12.567 C90.458,11.846 89.474,11.6 88.385,11.266 C87.014,10.879 85.486,10.317 85.486,8.543 L85.486,8.507 C85.486,6.75 86.944,5.678 88.789,5.678 C89.773,5.678 90.81,5.959 91.706,6.434 C92.004,6.592 92.216,6.873 92.216,7.242 C92.216,7.734 91.829,8.103 91.337,8.103 C91.161,8.103 91.056,8.068 90.915,7.998 C90.16,7.611 89.386,7.365 88.737,7.365 C87.911,7.365 87.436,7.752 87.436,8.279 L87.436,8.314 C87.436,9 88.438,9.281 89.527,9.632 C90.88,10.054 92.409,10.669 92.409,12.338 L92.409,12.374 C92.409,14.324 90.898,15.291 88.965,15.291 C87.788,15.291 86.504,14.921 85.432,14.183 z" fill="#FFFFFF"/>
      <path d="M93.111,6.803 C93.111,6.205 93.569,5.731 94.166,5.731 C94.763,5.731 95.238,6.205 95.238,6.803 L95.238,7.383 C95.923,6.416 96.889,5.643 98.401,5.643 C100.579,5.643 102.706,7.365 102.706,10.458 L102.706,10.493 C102.706,13.568 100.597,15.308 98.401,15.308 C96.854,15.308 95.888,14.535 95.238,13.674 L95.238,16.96 C95.238,17.558 94.763,18.014 94.166,18.014 C93.586,18.014 93.111,17.558 93.111,16.96 L93.111,6.803 z M100.544,10.493 L100.544,10.458 C100.544,8.666 99.332,7.488 97.891,7.488 C96.45,7.488 95.185,8.683 95.185,10.458 L95.185,10.493 C95.185,12.268 96.45,13.463 97.891,13.463 C99.35,13.463 100.544,12.32 100.544,10.493 z" fill="#FFFFFF"/>
      <path d="M108.087,15.325 C105.398,15.325 103.325,13.375 103.325,10.51 L103.325,10.475 C103.325,7.822 105.204,5.643 107.858,5.643 C110.811,5.643 112.269,8.068 112.269,10.212 C112.269,10.809 111.812,11.231 111.267,11.231 L105.45,11.231 C105.679,12.742 106.751,13.586 108.122,13.586 C109.018,13.586 109.721,13.269 110.319,12.777 C110.477,12.655 110.617,12.584 110.863,12.584 C111.337,12.584 111.706,12.953 111.706,13.445 C111.706,13.708 111.583,13.937 111.425,14.095 C110.582,14.851 109.528,15.325 108.087,15.325 z M110.196,9.825 C110.055,8.455 109.247,7.382 107.841,7.382 C106.541,7.382 105.627,8.384 105.434,9.825 L110.196,9.825 z" fill="#FFFFFF"/>
      <path d="M112.404,12.443 L112.404,12.408 C112.404,10.405 113.968,9.421 116.235,9.421 C117.272,9.421 118.01,9.579 118.731,9.807 L118.731,9.579 C118.731,8.261 117.922,7.558 116.429,7.558 C115.62,7.558 114.952,7.699 114.373,7.927 C114.25,7.962 114.144,7.98 114.039,7.98 C113.547,7.98 113.142,7.593 113.142,7.101 C113.142,6.714 113.406,6.38 113.722,6.257 C114.601,5.923 115.498,5.713 116.71,5.713 C118.098,5.713 119.135,6.082 119.785,6.75 C120.47,7.418 120.787,8.401 120.787,9.614 L120.787,14.183 C120.787,14.763 120.33,15.202 119.75,15.202 C119.135,15.202 118.713,14.78 118.713,14.306 L118.713,13.954 C118.081,14.71 117.114,15.307 115.691,15.307 C113.951,15.308 112.404,14.306 112.404,12.443 z M118.765,11.776 L118.765,11.143 C118.221,10.932 117.501,10.774 116.657,10.774 C115.287,10.774 114.478,11.354 114.478,12.32 L114.478,12.356 C114.478,13.252 115.269,13.762 116.288,13.762 C117.694,13.761 118.765,12.953 118.765,11.776 z" fill="#FFFFFF"/>
      <path d="M121.856,3.253 C121.856,2.673 122.313,2.198 122.91,2.198 C123.508,2.198 123.982,2.673 123.982,3.253 L123.982,10.107 L127.971,6.188 C128.252,5.906 128.516,5.731 128.885,5.731 C129.447,5.731 129.816,6.188 129.816,6.697 C129.816,7.049 129.641,7.312 129.342,7.594 L126.882,9.86 L129.693,13.533 C129.887,13.796 129.975,13.99 129.975,14.236 C129.975,14.816 129.518,15.202 128.973,15.202 C128.551,15.202 128.305,15.061 128.042,14.728 L125.388,11.196 L123.982,12.531 L123.982,14.148 C123.982,14.745 123.508,15.202 122.91,15.202 C122.33,15.202 121.856,14.745 121.856,14.148 L121.856,3.253 z" fill="#FFFFFF"/>
      <path d="M14.471,11.668 L13.141,10.521 L14.461,9.362 C14.715,9.139 17.874,6.39 22.249,3.712 C18.544,1.699 14.319,0.021 10.515,0.021 C4.721,0.021 0.025,4.717 0.025,10.51 C0.025,16.304 4.721,21 10.515,21 C14.408,21 18.649,19.323 22.342,17.311 C17.944,14.637 14.73,11.891 14.471,11.668 z" fill="#FFFFFF"/>
      <g>
        <path d="M69.708,13.112 C69.207,13.424 68.632,13.612 67.941,13.612 C66.57,13.612 65.498,12.769 65.27,11.257 L71.087,11.257 C71.631,11.257 72.088,10.836 72.088,10.238 C72.088,8.094 70.63,5.669 67.677,5.669 C65.024,5.669 63.144,7.848 63.144,10.502 L63.144,10.537 C63.144,13.401 65.217,15.352 67.906,15.352 C68.946,15.352 69.784,15.103 70.487,14.682 C70.079,14.244 69.816,13.713 69.708,13.112 z M67.66,7.409 C69.065,7.409 69.874,8.481 70.014,9.852 L65.252,9.852 C65.445,8.411 66.359,7.409 67.66,7.409 z" fill="#FFFFFF"/>
        <path d="M77.553,6.776 C76.903,6.108 75.866,5.739 74.478,5.739 C73.265,5.739 72.369,5.95 71.49,6.284 C71.358,6.336 71.235,6.424 71.137,6.538 C71.228,6.631 71.312,6.724 71.389,6.815 C71.676,7.158 71.918,7.546 72.109,7.962 C72.12,7.959 72.13,7.957 72.14,7.954 C72.72,7.725 73.388,7.585 74.197,7.585 C75.69,7.585 76.499,8.288 76.499,9.606 L76.499,9.834 C75.778,9.606 75.04,9.448 74.003,9.448 C71.736,9.448 70.172,10.432 70.172,12.435 L70.172,12.47 C70.172,14.333 71.719,15.335 73.458,15.335 C74.882,15.335 75.848,14.737 76.481,13.982 L76.481,14.333 C76.481,14.808 76.903,15.229 77.518,15.229 C78.098,15.229 78.555,14.79 78.555,14.21 L78.555,9.641 C78.555,8.428 78.238,7.444 77.553,6.776 z M76.534,11.802 C76.534,12.98 75.462,13.788 74.056,13.788 C73.037,13.788 72.246,13.278 72.246,12.382 L72.246,12.347 C72.246,11.381 73.054,10.801 74.425,10.801 C75.268,10.801 75.989,10.959 76.534,11.17 L76.534,11.802 z" fill="#FFFFFF"/>
      </g>
    </g>
  </g>
</svg>
