<?xml version="1.0" encoding="UTF-8"?>
<!DOCTYPE svg PUBLIC "-//W3C//DTD SVG 1.1//EN" "http://www.w3.org/Graphics/SVG/1.1/DTD/svg11.dtd">
<svg version="1.1" xmlns="http://www.w3.org/2000/svg" xmlns:xlink="http://www.w3.org/1999/xlink" x="0px" y="0px" width="121.5" height="31.5" viewBox="0, 0, 121.5, 31.5">
  <g id="Background">
    <rect x="0" y="0" width="121.5" height="31.5" fill="#FFFFFF"/>
  </g>
  <g id="Layer 1">
    <g>
      <text transform="matrix(1, 0, 0, 1, 72.624, 15.75)">
        <tspan x="-44.077" y="6" font-family="Roboto-Regular" font-size="18" fill="#FFFFFF">Nearspeak</tspan>
      </text>
      <path d="M39.779,21.75 L38.153,21.75 L31.799,11.669 L31.772,11.669 L31.772,21.75 L30.146,21.75 L30.146,8.953 L31.772,8.953 L38.127,19.025 L38.153,19.025 L38.153,8.953 L39.779,8.953 z M46.564,21.926 Q44.56,21.926 43.4,20.629 Q42.24,19.333 42.24,17.188 L42.24,16.793 Q42.24,14.719 43.431,13.392 Q44.622,12.064 46.301,12.064 Q48.234,12.064 49.205,13.198 Q50.177,14.332 50.177,16.301 L50.177,17.364 L43.875,17.364 Q43.91,18.823 44.6,19.72 Q45.29,20.616 46.564,20.616 Q47.452,20.616 48.098,20.37 Q48.744,20.124 49.263,19.676 L49.904,20.757 Q49.386,21.267 48.573,21.596 Q47.76,21.926 46.564,21.926 z M46.301,13.383 Q45.378,13.383 44.741,14.125 Q44.103,14.868 43.928,16.055 L48.551,16.055 L48.551,15.826 Q48.551,14.763 47.988,14.073 Q47.426,13.383 46.301,13.383 z M58.008,21.75 Q57.92,21.302 57.876,21.012 Q57.832,20.722 57.814,20.405 Q57.305,21.073 56.549,21.5 Q55.793,21.926 54.888,21.926 Q53.385,21.926 52.624,21.183 Q51.864,20.44 51.864,19.096 Q51.864,17.707 52.954,16.951 Q54.044,16.195 55.977,16.195 L57.814,16.195 L57.814,15.229 Q57.814,14.358 57.278,13.871 Q56.742,13.383 55.749,13.383 Q54.826,13.383 54.259,13.818 Q53.692,14.253 53.692,14.877 L52.066,14.877 Q52.066,13.778 53.112,12.921 Q54.158,12.064 55.837,12.064 Q57.48,12.064 58.46,12.873 Q59.44,13.682 59.44,15.246 L59.44,19.834 Q59.44,20.344 59.493,20.81 Q59.546,21.275 59.686,21.75 z M55.125,20.528 Q56.039,20.528 56.764,20.106 Q57.489,19.685 57.814,19.069 L57.814,17.32 L55.925,17.32 Q54.791,17.32 54.141,17.852 Q53.49,18.384 53.49,19.131 Q53.49,19.79 53.899,20.159 Q54.308,20.528 55.125,20.528 z M66.559,13.708 L65.61,13.655 Q64.863,13.655 64.38,13.998 Q63.896,14.341 63.633,14.982 L63.633,21.75 L61.998,21.75 L61.998,12.24 L63.457,12.24 L63.615,13.62 L63.641,13.629 Q64.037,12.891 64.635,12.478 Q65.232,12.064 66.041,12.064 Q66.252,12.064 66.458,12.095 Q66.665,12.126 66.779,12.161 z M75.577,18.533 Q75.577,17.619 74.918,17.035 Q74.259,16.45 72.51,16.02 Q70.435,15.527 69.319,14.613 Q68.203,13.699 68.203,12.249 Q68.203,10.729 69.412,9.749 Q70.62,8.769 72.598,8.769 Q74.716,8.769 75.946,9.902 Q77.177,11.036 77.177,12.636 L75.551,12.636 Q75.551,11.476 74.795,10.781 Q74.039,10.087 72.598,10.087 Q71.235,10.087 70.532,10.671 Q69.829,11.256 69.829,12.223 Q69.829,13.084 70.572,13.642 Q71.314,14.2 73.072,14.631 Q75.129,15.149 76.17,16.099 Q77.212,17.048 77.212,18.516 Q77.212,20.089 75.968,21.012 Q74.725,21.935 72.659,21.935 Q70.699,21.935 69.245,20.915 Q67.79,19.896 67.79,18.076 L69.416,18.076 Q69.416,19.351 70.343,19.988 Q71.27,20.625 72.659,20.625 Q74.03,20.625 74.804,20.071 Q75.577,19.518 75.577,18.533 z M87.31,17.347 Q87.31,19.456 86.348,20.691 Q85.386,21.926 83.619,21.926 Q82.714,21.926 82.055,21.631 Q81.395,21.337 80.93,20.748 L80.903,20.757 L80.903,25.406 L79.268,25.406 L79.268,12.24 L80.666,12.24 L80.824,13.453 Q81.299,12.768 81.975,12.416 Q82.652,12.064 83.593,12.064 Q85.386,12.064 86.348,13.44 Q87.31,14.815 87.31,17.162 z M85.676,17.162 Q85.676,15.483 85.043,14.451 Q84.41,13.418 83.118,13.418 Q82.318,13.418 81.778,13.77 Q81.237,14.121 80.903,14.736 L80.903,19.324 Q81.255,19.948 81.787,20.282 Q82.318,20.616 83.136,20.616 Q84.419,20.616 85.047,19.724 Q85.676,18.832 85.676,17.347 z M93.375,21.926 Q91.371,21.926 90.211,20.629 Q89.051,19.333 89.051,17.188 L89.051,16.793 Q89.051,14.719 90.242,13.392 Q91.433,12.064 93.111,12.064 Q95.045,12.064 96.016,13.198 Q96.987,14.332 96.987,16.301 L96.987,17.364 L90.685,17.364 Q90.721,18.823 91.411,19.72 Q92.1,20.616 93.375,20.616 Q94.263,20.616 94.909,20.37 Q95.555,20.124 96.073,19.676 L96.715,20.757 Q96.196,21.267 95.383,21.596 Q94.57,21.926 93.375,21.926 z M93.111,13.383 Q92.188,13.383 91.551,14.125 Q90.914,14.868 90.738,16.055 L95.361,16.055 L95.361,15.826 Q95.361,14.763 94.799,14.073 Q94.236,13.383 93.111,13.383 z M104.818,21.75 Q104.73,21.302 104.686,21.012 Q104.642,20.722 104.625,20.405 Q104.115,21.073 103.359,21.5 Q102.603,21.926 101.698,21.926 Q100.195,21.926 99.435,21.183 Q98.675,20.44 98.675,19.096 Q98.675,17.707 99.765,16.951 Q100.854,16.195 102.788,16.195 L104.625,16.195 L104.625,15.229 Q104.625,14.358 104.089,13.871 Q103.553,13.383 102.559,13.383 Q101.637,13.383 101.07,13.818 Q100.503,14.253 100.503,14.877 L98.877,14.877 Q98.877,13.778 99.923,12.921 Q100.969,12.064 102.647,12.064 Q104.291,12.064 105.271,12.873 Q106.251,13.682 106.251,15.246 L106.251,19.834 Q106.251,20.344 106.304,20.81 Q106.356,21.275 106.497,21.75 z M101.935,20.528 Q102.85,20.528 103.575,20.106 Q104.3,19.685 104.625,19.069 L104.625,17.32 L102.735,17.32 Q101.601,17.32 100.951,17.852 Q100.301,18.384 100.301,19.131 Q100.301,19.79 100.709,20.159 Q101.118,20.528 101.935,20.528 z M111.586,17.338 L110.452,17.338 L110.452,21.75 L108.817,21.75 L108.817,8.039 L110.452,8.039 L110.452,16.011 L111.559,16.011 L114.328,12.24 L116.253,12.24 L112.931,16.573 L116.71,21.75 L114.785,21.75 z" fill="#FFFFFF"/>
    </g>
    <g>
      <path d="M14.434,6.377 C15.265,6.377 15.947,5.701 15.947,4.868 C15.947,4.026 15.265,3.349 14.434,3.349 C13.599,3.349 12.92,4.026 12.92,4.868 C12.921,5.701 13.6,6.377 14.434,6.377" fill="#FFFFFF"/>
      <path d="M16.852,6.866 L11.992,6.866 C10.918,6.866 10.056,7.744 10.056,8.833 L10.056,12.46 C10.056,13.362 11.249,13.362 11.249,12.46 L11.249,8.96 L12.486,8.96 L12.486,13.375 C13.118,13.524 13.766,13.639 14.449,13.639 C15.125,13.639 15.766,13.525 16.398,13.378 L16.398,8.96 L17.626,8.96 L17.626,12.46 C17.626,13.369 18.817,13.369 18.817,12.46 L18.817,8.854 C18.816,7.858 18.034,6.866 16.852,6.866" fill="#FFFFFF"/>
      <path d="M20.166,14.787 C18.538,15.903 16.553,16.561 14.426,16.561 C12.312,16.561 10.352,15.913 8.716,14.816 L7.434,16.724 C9.428,18.076 11.837,18.859 14.426,18.859 C17.034,18.859 19.455,18.067 21.455,16.702 L20.166,14.787 z" fill="#FFFFFF"/>
      <path d="M22.617,18.717 C20.286,20.306 17.467,21.228 14.437,21.228 C11.421,21.228 8.616,20.316 6.288,18.744 L4.992,20.611 C7.683,22.439 10.936,23.507 14.437,23.507 C17.944,23.507 21.196,22.433 23.899,20.605 L22.617,18.717 z" fill="#FFFFFF"/>
      <path d="M25.05,22.615 C22.023,24.671 18.368,25.873 14.431,25.873 C10.5,25.873 6.848,24.674 3.824,22.624 L2.56,24.518 C5.941,26.813 10.031,28.151 14.432,28.151 C18.841,28.151 22.94,26.801 26.334,24.493 L25.05,22.615 z" fill="#FFFFFF"/>
    </g>
  </g>
  <defs/>
</svg>
